<?xml version="1.0" encoding="utf-8"?>
<!-- Generator: Adobe Illustrator 21.0.0, SVG Export Plug-In . SVG Version: 6.00 Build 0)  -->
<svg version="1.1" id="Слой_1" xmlns="http://www.w3.org/2000/svg" xmlns:xlink="http://www.w3.org/1999/xlink" x="0px" y="0px"
	 viewBox="0 0 26.4 24" style="enable-background:new 0 0 26.4 24;" xml:space="preserve">
<style type="text/css">
	.st0{fill:url(#SVGID_1_);}
	.st1{fill:#FFFFFF;}
</style>
<g>
	
		<radialGradient id="SVGID_1_" cx="-399.3756" cy="320.8322" r="1" gradientTransform="matrix(2.340527e-15 38.2237 42.0847 -2.576945e-15 -13488.915 15265.6133)" gradientUnits="userSpaceOnUse">
		<stop  offset="0" style="stop-color:#6B6BEA"/>
		<stop  offset="1" style="stop-color:#3C92C9"/>
	</radialGradient>
	<path class="st0" d="M13.2,24c7.3,0,13.2-5.4,13.2-12c0-6.6-5.9-12-13.2-12C5.9,0,0,5.4,0,12C0,18.6,5.9,24,13.2,24z"/>
</g>
<g>
	<path class="st1" d="M16.5,4.5c-0.2,0-0.4,0.1-0.5,0.2l-4.7,5l1,0.3c0.2,0,0.3,0.2,0.3,0.4l0,2.8c0,0.2-0.1,0.3-0.2,0.3l-1.1,0.3
		l4.7,5.5c0.1,0.1,0.3,0.2,0.5,0.2h1.3c0.5,0,0.8-0.5,0.6-1L14.5,12c-0.1-0.2-0.1-0.4,0-0.6l3.3-5.9c0.2-0.4-0.1-1-0.6-1H16.5z
		 M8.7,5.3c0-0.5,0.5-0.8,1-0.6l0.8,0.4c0.2,0.1,0.3,0.3,0.3,0.6v12.9c0,0.5-0.5,0.8-0.9,0.6L9,18.9c-0.2-0.1-0.4-0.3-0.4-0.6v-4.7
		L8,13.4c-0.2-0.1-0.3-0.2-0.3-0.3l0-2.8C7.7,10.1,7.8,10,8,10l0.7-0.2V5.3z"/>
</g>
</svg>
