<svg width="25" height="26" viewBox="0 0 25 26" fill="none" xmlns="http://www.w3.org/2000/svg">
<rect y="0.379272" width="25" height="25.4245" rx="12.5" fill="#C2CEFF"/>
<path fill-rule="evenodd" clip-rule="evenodd" d="M18.3522 6.80527C18.0875 6.53604 17.74 6.40088 17.3924 6.40088C17.0449 6.40088 16.6974 6.53604 16.4327 6.80527C16.4327 6.80527 16.4131 6.8241 16.388 6.85069C16.3869 6.8518 16.3855 6.85263 16.3842 6.85346C16.3828 6.85429 16.3815 6.85512 16.3804 6.85623L6.56263 16.8396C6.52886 16.8751 6.5038 16.9183 6.49073 16.9671L5.93077 19.0909C5.90463 19.1884 5.93186 19.2926 6.00268 19.3646C6.05606 19.4189 6.12687 19.4477 6.19986 19.4477C6.22382 19.4477 6.24779 19.4444 6.27176 19.4377L8.36015 18.8682C8.40809 18.8549 8.45057 18.8295 8.48543 18.794L18.3021 8.8117C18.3041 8.80962 18.3053 8.8071 18.3065 8.8047C18.3071 8.80326 18.3078 8.80186 18.3086 8.80062L18.3511 8.75741C18.8827 8.21786 18.8827 7.34371 18.3522 6.80527ZM17.9579 7.20634C18.2695 7.5232 18.2695 8.03949 17.9579 8.35636C17.8945 8.42004 17.8378 8.47802 17.7866 8.5303L17.7193 8.59899L16.5885 7.44897L16.8271 7.20634C16.9774 7.05234 17.179 6.96814 17.3925 6.96814C17.606 6.96814 17.8065 7.05345 17.9579 7.20634ZM7.8314 18.4251L6.92719 17.5055L6.59492 18.763L7.8314 18.4251Z" fill="white"/>
</svg>
